<?xml version="1.0" encoding="utf-8"?>
<!-- Svg Vector Icons : http://www.onlinewebfonts.com/icon -->
<!DOCTYPE svg PUBLIC "-//W3C//DTD SVG 1.1//EN" "http://www.w3.org/Graphics/SVG/1.1/DTD/svg11.dtd">
<svg version="1.1" xmlns="http://www.w3.org/2000/svg" xmlns:xlink="http://www.w3.org/1999/xlink" x="0px" y="0px" viewBox="0 0 1000 1000" enable-background="new 0 0 1000 1000" xml:space="preserve">
<metadata> Svg Vector Icons : http://www.onlinewebfonts.com/icon </metadata>
<g><path d="M977.8,501.5"/><path d="M824.6,866c-3.1,0-3.1,0-6.1,0c-9.2-3.1-12.3-12.3-9.2-18.4c45.9-110.3,67.4-226.6,70.4-343c0-9.2,6.1-15.3,15.3-15.3c9.2,0,15.3,6.1,15.3,15.3c0,122.5-24.5,241.9-73.5,355.3C836.9,862.9,830.8,866,824.6,866z"/><path d="M686.8,957.8c-3.1,0-6.1,0-9.2-3.1c-6.1-6.1-9.2-15.3-3.1-21.4c82.7-128.6,128.6-278.7,128.6-431.8c0-9.2,6.1-15.3,15.3-15.3c9.2,0,15.3,6.1,15.3,15.3c0,162.3-45.9,318.5-134.8,447.1C699.1,954.8,692.9,957.8,686.8,957.8z"/><path d="M564.3,988.5c-3.1,0-6.1,0-9.2-3.1c-6.1-6.1-6.1-15.3,0-21.4C668.4,838.4,729.7,673,729.7,501.5c0-9.2,6.1-15.3,15.3-15.3l0,0c9.2,0,15.3,6.1,15.3,15.3c3.1,177.6-61.3,349.1-180.7,480.8C570.4,988.5,567.4,988.5,564.3,988.5z"/><path d="M447.9,973.2"/><path d="M656.2,568.9C656.2,568.9,653.1,568.9,656.2,568.9c-12.3-3.1-15.3-9.2-15.3-18.4c3.1-12.3,3.1-30.6,3.1-45.9c0-9.2,6.1-15.3,15.3-15.3c9.2,0,15.3,6.1,15.3,15.3c0,18.4,0,36.8-3.1,52.1C668.4,562.8,662.3,568.9,656.2,568.9z"/><path d="M637.8,685.3h-3.1c-9.2-3.1-12.2-12.3-9.2-18.4c3.1-15.3,12.2-39.8,15.3-64.3c0-9.2,9.2-15.3,18.4-12.3c9.2,0,15.3,9.2,12.3,18.4c-3.1,27.6-9.2,52.1-15.3,70.4C650.1,679.2,643.9,685.3,637.8,685.3z"/><path d="M447.9,988.5c-3.1,0-9.2-3.1-12.3-6.1c-6.1-6.1-6.1-15.3,0-21.4c76.6-70.4,137.8-156.2,171.5-254.2c3.1-9.2,12.3-12.3,18.4-9.2c9.2,3.1,12.2,12.3,9.2,18.4c-36.7,104.1-98,196-177.6,269.5C457.1,988.5,454.1,988.5,447.9,988.5z"/><path d="M349.9,954.8"/><path d="M573.5,596.5L573.5,596.5c-9.2,0-15.3-9.2-15.3-18.4c3.1-24.5,6.1-52.1,6.1-76.6c0-9.2,6.1-15.3,15.3-15.3c9.2,0,15.3,6.1,15.3,15.3c0,27.6-3.1,55.1-6.1,79.6C588.8,590.3,582.7,596.5,573.5,596.5z"/><path d="M484.7,832.3c-3.1,0-6.1,0-9.2-3.1c-6.1-6.1-9.2-15.3-3.1-21.4c42.9-67.4,70.4-128.6,82.7-186.8c3.1-9.2,9.2-12.2,18.4-12.2c9.2,3.1,12.3,9.2,12.3,18.4c-12.3,64.3-42.9,128.6-85.8,196C493.9,829.2,487.8,832.3,484.7,832.3z"/><path d="M349.9,970.1c-6.1,0-9.2-3.1-12.3-6.1c-6.1-6.1-3.1-15.3,3.1-21.4c33.7-21.4,64.3-52.1,94.9-88.8c6.1-6.1,15.3-6.1,21.4-3.1c6.1,6.1,6.1,15.3,3.1,21.4c-33.7,39.8-67.4,70.4-101.1,94.9C356.1,967,353,970.1,349.9,970.1z"/><path d="M264.2,915"/><path d="M451,731.2c-3.1,0-6.1,0-6.1-3.1c-6.1-3.1-9.2-12.3-6.1-21.4c30.6-61.3,49-134.8,49-205.2c0-9.2,6.1-15.3,15.3-15.3c9.2,0,15.3,6.1,15.3,15.3c0,76.6-18.4,153.1-52.1,220.5C463.2,728.2,457.1,731.2,451,731.2z"/><path d="M264.2,930.3c-6.1,0-9.2-3.1-12.3-6.1c-3.1-6.1-3.1-15.3,6.1-21.4c67.4-39.8,125.6-94.9,162.3-156.2c3.1-6.1,12.2-9.2,21.4-6.1c6.1,3.1,9.2,15.3,6.1,21.4c-39.8,67.4-101.1,125.6-174.6,168.4C267.2,930.3,267.2,930.3,264.2,930.3z"/><path d="M193.7,878.2c-6.1,0-12.2-3.1-15.3-9.2c-3.1-6.1,0-15.3,6.1-21.4l9.2-6.1c33.7-18.4,67.4-39.8,94.9-67.4c6.1-6.1,15.3-15.3,21.4-21.4c61.3-70.4,94.9-159.3,94.9-251.1c0-9.2,6.1-15.3,15.3-15.3l0,0c9.2,0,15.3,6.1,15.3,15.3c3.1,113.3-42.9,217.4-125.6,297.1c-27.6,27.6-61.3,52.1-101.1,73.5l0,0c-3.1,3.1-6.1,3.1-12.3,6.1C196.8,878.2,196.8,878.2,193.7,878.2z"/><path d="M132.5,817c-6.1,0-12.3-3.1-15.3-9.2c0-3.1,0-3.1,0-6.1c0-6.1,3.1-12.3,9.2-15.3l0,0l0,0l0,0l0,0l0,0l0,0c119.4-42.9,199.1-159.3,199.1-284.8c0-9.2,6.1-15.3,15.3-15.3c9.2,0,15.3,6.1,15.3,15.3l0,0c0,140.9-88.8,266.4-220.5,312.4l0,0C135.6,817,132.5,817,132.5,817z"/><path d="M86.6,731.2"/><path d="M245.8,611.8c-3.1,0-3.1,0-6.1,0c-9.2-3.1-12.3-12.3-9.2-18.4c9.2-27.6,15.3-58.2,15.3-88.8c0-9.2,6.1-15.3,15.3-15.3c9.2,0,15.3,6.1,15.3,15.3c0,33.7-6.1,67.4-18.4,98C258.1,608.7,251.9,611.8,245.8,611.8z"/><path d="M86.6,746.5c-6.1,0-12.2-3.1-15.3-12.3c-3.1-9.2,3.1-15.3,12.3-18.4c49-12.3,91.9-42.9,128.6-88.8c6.1-6.1,15.3-6.1,21.4-3.1c6.1,6.1,9.2,15.3,3.1,21.4c-39.8,49-88.8,82.7-143.9,98C89.6,746.5,86.6,746.5,86.6,746.5z"/><path d="M49.8,676.1c-6.1,0-12.3-6.1-15.3-12.2c0-9.2,3.1-15.3,12.2-18.4c67.4-12.3,119.4-73.5,122.5-143.9c0-9.2,6.1-15.3,15.3-15.3c9.2,0,15.3,6.1,15.3,15.3C199.9,587.3,135.6,660.8,49.8,676.1C52.9,676.1,52.9,676.1,49.8,676.1z"/><path d="M31.4,596.5c-9.2,0-15.3-6.1-15.3-15.3c0-9.2,6.1-15.3,15.3-15.3l0,0l0,0l0,0c33.7-3.1,58.2-30.6,58.2-64.3l0,0l0,0c0-9.2,6.1-15.3,15.3-15.3c9.2,0,15.3,6.1,15.3,15.3l0,0l0,0l0,0l0,0C117.2,553.6,80.4,593.4,31.4,596.5L31.4,596.5z"/><path d="M974.7,516.8c-9.2,0-15.3-6.1-15.3-15.3c0-140.9-61.3-272.6-171.5-361.4c-6.1-6.1-6.1-15.3-3.1-21.4c6.1-6.1,15.3-6.1,21.4-3.1C922.6,210.6,990,351.5,990,498.5C990,510.7,983.9,516.8,974.7,516.8z"/><path d="M163.1,180c-3.1,0-9.2,0-12.2-3.1c-6.1-6.1-6.1-15.3,0-21.4C242.7,63.6,368.3,11.5,500,11.5c94.9,0,183.8,24.5,260.3,76.6c6.1,3.1,9.2,15.3,6.1,21.4c-3.1,6.1-15.3,9.2-21.4,6.1c-70.4-45.9-156.2-70.4-245-70.4c-122.5,0-238.9,49-327.7,134.8C172.3,180,169.2,180,163.1,180z"/><path d="M25.3,516.8c-9.2,0-15.3-6.1-15.3-15.3c0-110.3,36.7-214.4,104.1-303.2c6.1-6.1,15.3-9.2,21.4-3.1c6.1,6.1,9.2,15.3,3.1,21.4c-64.3,82.7-98,180.7-98,284.8C40.6,510.7,34.5,516.8,25.3,516.8z"/><path d="M101.9,516.8c-9.2,0-15.3-6.1-15.3-15.3c0-119.4,52.1-235.8,143.9-315.4c6.1-6.1,15.3-6.1,21.4,3.1c6.1,6.1,6.1,15.3-3.1,21.4c-85.8,73.5-134.8,180.7-134.8,290.9C117.2,510.7,111.1,516.8,101.9,516.8z"/><path d="M288.7,183c-6.1,0-9.2-3.1-12.3-6.1c-3.1-6.1-3.1-15.3,6.1-21.4c67.4-42.9,143.9-64.3,220.5-64.3c9.2,0,15.3,6.1,15.3,15.3c0,9.2-6.1,15.3-15.3,15.3c-70.4,0-140.9,21.4-205.2,58.2C294.8,183,291.8,183,288.7,183z"/><path d="M898.1,516.8c-9.2,0-15.3-6.1-15.3-15.3c0-186.8-131.7-343-315.4-373.6c-9.2,0-15.3-9.2-12.3-18.4s9.2-15.3,18.4-12.3c199.1,33.7,343,205.2,343,404.3C913.4,510.7,907.3,516.8,898.1,516.8z"/><path d="M818.5,501.5"/><path d="M184.6,516.8c-9.2,0-15.3-6.1-15.3-15.3c0-183.8,150.1-333.8,333.8-333.8c156.2,0,287.9,107.2,324.6,260.3c3.1,9.2-3.1,15.3-12.2,18.4c-9.2,3.1-15.3-3.1-18.4-12.2c-30.6-137.8-153.1-235.8-294-235.8c-165.4,0-303.2,134.8-303.2,303.2C199.9,510.7,193.7,516.8,184.6,516.8z"/><path d="M264.2,516.8c-9.2,0-15.3-6.1-15.3-15.3c0-140.9,113.3-254.2,254.2-254.2c21.4,0,42.9,3.1,64.3,9.2c9.2,3.1,12.2,12.3,9.2,18.4c-3.1,9.2-12.3,12.3-18.4,9.2c-18.4-6.1-36.8-9.2-58.2-9.2c-122.5,0-223.6,101.1-223.6,223.6C279.5,510.7,270.3,516.8,264.2,516.8z"/><path d="M738.9,516.8c-9.2,0-15.3-6.1-15.3-15.3c0-82.7-45.9-156.2-116.4-196c-6.1-3.1-9.2-12.3-6.1-21.4c3.1-6.1,12.3-9.2,21.4-6.1c82.7,42.9,131.7,128.6,131.7,223.6C754.2,510.7,748.1,516.8,738.9,516.8z"/><path d="M659.3,516.8c-9.2,0-15.3-6.1-15.3-15.3c0-79.6-64.3-140.9-140.9-140.9c-12.3,0-21.4,0-30.6,3.1c-9.2,3.1-15.3-3.1-18.4-12.2s3.1-15.3,12.2-18.4c9.2-3.1,24.5-3.1,36.8-3.1c94.9,0,171.5,76.6,171.5,171.5C674.6,510.7,668.4,516.8,659.3,516.8z"/><path d="M343.8,516.8c-9.2,0-15.3-6.1-15.3-15.3c0-55.1,27.6-107.2,70.4-140.9c6.1-6.1,15.3-3.1,21.4,3.1c6.1,6.1,3.1,15.3-3.1,21.4c-36.8,27.6-58.2,70.4-58.2,116.4C359.1,510.7,353,516.8,343.8,516.8z"/><path d="M579.6,516.8c-9.2,0-15.3-6.1-15.3-15.3c0-36.7-27.6-64.3-64.3-64.3c-36.8,0-64.3,27.6-64.3,64.3c0,9.2-6.1,15.3-15.3,15.3s-15.3-6.1-15.3-15.3c0-52.1,42.9-94.9,94.9-94.9s94.9,42.9,94.9,94.9C594.9,510.7,588.8,516.8,579.6,516.8z"/></g>
</svg>